<?xml version="1.0" encoding="UTF-8"?>
<svg version="1.1" xmlns="http://www.w3.org/2000/svg" width="512" height="512">
<path d="M0 0 C6.02212277 4.74522655 11.31052543 10.28708057 16.69038773 15.73187447 C17.97574356 17.02136121 19.26178483 18.310165 20.54845047 19.5983448 C23.29622061 22.35216338 26.03924472 25.11058986 28.77855682 27.87282181 C33.11776269 32.2481171 37.46812059 36.6122125 41.81999588 40.9749012 C50.27012305 49.4490585 58.70887393 57.93449278 67.14654922 66.4210453 C77.89231886 77.22781291 88.64379146 88.02888997 99.40439594 98.82088655 C103.72180865 103.15161718 108.03392532 107.48753058 112.34182763 111.82772076 C115.02908563 114.53318758 117.72053262 117.23445854 120.41304016 119.93470001 C121.65232245 121.17928612 122.88987453 122.42559806 124.12547684 123.67383766 C140.02284608 139.7294182 156.97694578 153.57975059 180.68208694 154.03241158 C198.28489797 154.05072029 213.99693263 147.86629316 226.79536819 135.59100533 C238.60630133 122.41796154 244.98719468 106.6479292 244.61958694 88.88788033 C243.24384353 71.45463169 236.44734253 56.05033586 223.68208694 43.96991158 C209.71145122 32.61529131 193.33091918 27.38944252 175.36958694 28.71991158 C158.41792948 31.53107555 145.39816845 38.60791411 133.36958694 50.71991158 C132.47111038 51.59389595 131.57263382 52.46788033 130.64693069 53.36834908 C126.17293145 57.75462284 121.89935704 62.25367109 117.84224319 67.02850533 C116.41500291 68.66774947 114.92446357 70.20216634 113.36958694 71.71991158 C110.27779559 70.34375797 108.17319941 68.76832712 105.79439163 66.37176704 C105.11398819 65.69121254 104.43358475 65.01065804 103.73256302 64.30948067 C103.00949966 63.57609474 102.28643631 62.84270882 101.54146194 62.08709908 C100.79245621 61.33526344 100.04345047 60.58342781 99.27174759 59.80880928 C96.88295674 57.40883257 94.50121797 55.00199148 92.11958694 52.59491158 C90.50025525 50.96554805 88.88046893 49.33663623 87.26021194 47.70819283 C83.2913819 43.71732352 79.32831796 39.72079742 75.36958694 35.71991158 C76.67433591 32.8472487 78.06602668 30.76861075 80.28364944 28.53119087 C80.87186478 27.93344353 81.46008011 27.33569618 82.06612015 26.71983528 C82.70251419 26.08435265 83.33890823 25.44887001 83.99458694 24.79413033 C84.65611771 24.12831444 85.31764847 23.46249855 85.99922562 22.77650642 C87.40218825 21.36780391 88.80777515 19.9617108 90.21577835 18.55804634 C92.34276385 16.43419514 94.45615039 14.2974588 96.56880569 12.1593647 C103.40057153 5.29498792 110.04410042 -1.21917209 118.36958694 -6.28008842 C119.26919144 -6.8590789 119.26919144 -6.8590789 120.18696976 -7.44976616 C133.20595138 -15.71210691 147.20297992 -20.69339103 162.36958694 -23.28008842 C163.41630569 -23.4631353 164.46302444 -23.64618217 165.54146194 -23.83477592 C182.03028442 -25.75286344 198.37477505 -24.57667121 214.36958694 -20.28008842 C215.04134964 -20.10348686 215.71311234 -19.9268853 216.40523148 -19.74493217 C231.14326826 -15.73256018 244.99470307 -8.47622786 256.36958694 1.71991158 C257.62835648 2.80079048 257.62835648 2.80079048 258.91255569 3.90350533 C283.61937265 25.4705755 297.28138352 55.26132748 299.58833694 87.80584908 C300.50676148 117.578111 289.89570215 147.91341858 269.66646194 169.79413033 C247.89369163 192.61487355 220.22250525 206.57346707 188.36958694 207.71991158 C151.10395818 208.29566482 122.24567244 194.86456583 95.76356888 169.19372749 C93.51312674 166.95856494 91.27056774 164.71609801 89.03779602 162.46328545 C87.56708553 160.97951327 86.09301268 159.49914965 84.61815262 158.01950264 C81.49075556 154.88082632 78.36736301 151.73818463 75.24458694 148.59491158 C71.6121585 144.9386997 67.97800772 141.28423248 64.33959198 137.63397789 C62.90191474 136.18991759 61.4673308 134.74283528 60.03288651 133.29556465 C59.14481308 132.404188 58.25673965 131.51281136 57.34175491 130.59442329 C56.5724968 129.81992836 55.80323868 129.04543343 55.01066971 128.24746895 C52.89488959 126.22263439 50.75016315 124.30027577 48.53497696 122.38827705 C44.42177338 118.81482568 40.57366641 115.03167196 36.75117874 111.1515522 C36.03616196 110.43025627 35.32114517 109.70896034 34.58446121 108.96580696 C33.04534527 107.4129348 31.50731202 105.85898892 29.97027016 104.3040638 C27.52957257 101.83649654 25.08432594 99.37352492 22.63760757 96.91192818 C15.68562741 89.91742808 8.73632375 82.9203435 1.80342484 75.90692329 C-2.45051224 71.60424685 -6.71433727 67.31158377 -10.98462105 63.02513313 C-12.600876 61.39903606 -14.21348324 59.76930426 -15.82221031 58.13575935 C-27.63546059 46.04695926 -27.63546059 46.04695926 -41.63041306 36.71991158 C-42.3471167 36.3140583 -43.06382034 35.90820503 -43.80224228 35.49005318 C-57.11813899 28.05962032 -73.03310117 27.42691529 -87.63041306 30.71991158 C-104.34178628 35.67357123 -118.05444083 45.62822488 -127.09525681 60.65350533 C-135.17921547 76.80085278 -137.04499679 94.42231522 -131.63041306 111.71991158 C-127.71641181 121.82497347 -122.51067568 130.20046684 -114.63041306 137.71991158 C-114.09158493 138.27807564 -113.55275681 138.8362397 -112.99760056 139.41131783 C-101.45483123 150.51905815 -85.11695421 154.2268319 -69.63090134 154.06952095 C-40.90065143 153.22198717 -23.38544675 132.89115462 -4.63041306 113.71991158 C-1.5386217 115.09606518 0.56597448 116.67149603 2.94478226 119.06805611 C3.96538742 120.08888786 3.96538742 120.08888786 5.00661087 121.13034248 C5.72967422 121.86372841 6.45273758 122.59711433 7.19771194 123.35272408 C7.94671768 124.10455971 8.69572342 124.85639534 9.4674263 125.63101387 C11.85621714 128.03099058 14.23795591 130.43783167 16.61958694 132.84491158 C18.23891864 134.4742751 19.85870496 136.10318692 21.47896194 137.73163033 C25.44779199 141.72249963 29.41085593 145.71902573 33.36958694 149.71991158 C31.55261765 153.63193876 29.0308873 156.38024405 26.01411819 159.41131783 C25.21348953 160.22458282 25.21348953 160.22458282 24.39668655 161.05427742 C22.66598258 162.80463851 20.92573282 164.54494641 19.18208694 166.28241158 C18.59067917 166.87294319 17.99927139 167.46347481 17.38994217 168.07190132 C8.93763572 176.48272353 0.598082 184.48505969 -9.63041306 190.71991158 C-10.21725876 191.08133247 -10.80410446 191.44275337 -11.40873337 191.81512642 C-36.3355017 206.90870521 -67.85976988 212.12514132 -96.35697556 205.81756783 C-126.39629722 198.38932744 -152.42420297 182.44327052 -169.60697556 156.12616158 C-186.33564831 127.96515262 -193.21827396 95.80026445 -185.44291306 63.59491158 C-177.51235266 32.9804308 -158.88689531 6.99238609 -131.49515915 -9.21612358 C-89.9060996 -32.94551891 -37.82629543 -28.87831569 0 0 Z " fill="#4DA5FF" transform="translate(200.63041305541992,164.28008842468262)"/>
</svg>
